<svg xmlns="http://www.w3.org/2000/svg" xmlns:xlink="http://www.w3.org/1999/xlink" width="463.827" height="123.017" viewBox="0 0 463.827 123.017"><defs><clipPath id="a"><rect width="463.827" height="123.017" fill="#fff"/></clipPath></defs><g transform="translate(0 0)"><path d="M37.8.471,10.972,31.356V.471H0V69.434H10.972V47.767l8.388-9.681,22.59,31.347H55.41L26.736,29.421,51.908.471Z" transform="translate(0 0.45)" fill="#fff"/><path d="M30.912.471V69.434H74.519V59.661H41.884V.471Z" transform="translate(29.568 0.45)" fill="#fff"/><g transform="translate(0 0)"><g clip-path="url(#a)"><path d="M102.276.471h10.972V42.6q0,13.186-7.515,20.469T84.946,70.355q-13.277,0-20.792-7.282T56.641,42.6V.471h10.97V42.418q0,8.854,4.473,13.508t12.862,4.656q8.294,0,12.813-4.656t4.518-13.508Z" transform="translate(54.177 0.45)" fill="#fff"/><path d="M119.858,38.826H102.249V59.661H119.4q5.438,0,8.573-2.628t3.134-7.7q0-5.159-3.087-7.836a12.031,12.031,0,0,0-8.161-2.673m-2.673-28.674H102.249v19.27h16.5q9.494,0,9.5-9.5a9.022,9.022,0,0,0-2.952-7.237q-2.949-2.533-8.112-2.536M91.369,69.434V.471h27.105q9.591,0,15.259,4.887t5.67,13.829q0,10.418-7.744,14.2a15.027,15.027,0,0,1,7.791,5.946,18.392,18.392,0,0,1,2.9,10.557q0,9.315-5.9,14.429t-15.765,5.116Z" transform="translate(87.394 0.45)" fill="#fff"/><path d="M164.349,0q12.631,0,21.39,7.006a27.874,27.874,0,0,1,10.6,18.808l-11.432,1.013a19.814,19.814,0,0,0-6.961-12.539q-5.579-4.514-13.965-4.518-10.327,0-16.6,6.914-6.272,7.008-6.271,18.718,0,12.167,6.456,18.9t16.5,6.73q8.3,0,13.83-4.334a19.306,19.306,0,0,0,7.006-12.077l11.524,1.013a27.93,27.93,0,0,1-10.786,18.438q-8.663,6.732-21.2,6.732-15.211,0-24.8-9.5-9.682-9.494-9.681-25.906,0-16.32,9.589-25.908Q149.045,0,164.349,0" transform="translate(124.308 0)" fill="#fff"/><path d="M200.916,0Q213.548,0,222.3,7.006a27.886,27.886,0,0,1,10.6,18.808l-11.434,1.013a19.812,19.812,0,0,0-6.959-12.539q-5.582-4.514-13.969-4.518-10.324,0-16.6,6.914-6.269,7.008-6.269,18.718,0,12.167,6.454,18.9t16.5,6.73q8.3,0,13.829-4.334a19.315,19.315,0,0,0,7.006-12.077L233,45.635a27.933,27.933,0,0,1-10.788,18.438q-8.666,6.732-21.2,6.732-15.214,0-24.8-9.5-9.682-9.494-9.681-25.906,0-16.32,9.587-25.908Q185.613,0,200.916,0" transform="translate(159.284 0)" fill="#fff"/><path d="M237.484,0q12.631,0,21.388,7.006a27.877,27.877,0,0,1,10.6,18.808l-11.432,1.013a19.823,19.823,0,0,0-6.961-12.539Q245.5,9.775,237.115,9.771q-10.327,0-16.595,6.914-6.272,7.008-6.271,18.718,0,12.167,6.456,18.9t16.5,6.73q8.3,0,13.83-4.334a19.323,19.323,0,0,0,7.006-12.077l11.524,1.013a27.931,27.931,0,0,1-10.786,18.438q-8.666,6.732-21.2,6.732-15.214,0-24.8-9.5-9.682-9.494-9.681-25.906,0-16.32,9.589-25.908Q222.178,0,237.484,0" transform="translate(194.26 0)" fill="#fff"/></g></g><path d="M62.342,68.4,51.974,52.587V72.459h2.408V60.18l7.959,12.383L70.3,60.18V72.459h2.383V52.587Z" transform="translate(49.713 50.299)" fill="#fff"/><rect width="2.41" height="19.583" transform="translate(126.583 103.174)" fill="#fff"/><path d="M68.072,52.734V72.317H80.194V70.194H70.48V63.231h8.562v-2.07H70.48V54.855h9.714V52.734Z" transform="translate(65.11 50.44)" fill="#fff"/><g transform="translate(0 0)"><g clip-path="url(#a)"><path d="M84.8,52.734h2.408V66.113a6.619,6.619,0,0,1-1.624,4.764,5.889,5.889,0,0,1-4.475,1.7,6.052,6.052,0,0,1-4.439-1.636,6.511,6.511,0,0,1-1.82-4.463l2.408-.393a5.1,5.1,0,0,0,1.113,3.209,3.941,3.941,0,0,0,5.486.051,4.726,4.726,0,0,0,.941-3.181Z" transform="translate(71.6 50.439)" fill="#fff"/><path d="M89.86,52.6a7.515,7.515,0,0,1,4.791,1.465,5.088,5.088,0,0,1,1.962,3.98L94.18,58.2a3.454,3.454,0,0,0-1.244-2.581,4.641,4.641,0,0,0-3.023-.929,4.706,4.706,0,0,0-3.117.945A3.057,3.057,0,0,0,85.671,58.1a2.763,2.763,0,0,0,.812,2.043,3.723,3.723,0,0,0,1.021.6,17.36,17.36,0,0,0,2.933.867,15.061,15.061,0,0,1,5.157,1.962,3.93,3.93,0,0,1,1.6,3.483,4.965,4.965,0,0,1-1.964,4.24,8.183,8.183,0,0,1-5,1.415,8.611,8.611,0,0,1-5.238-1.518A5.2,5.2,0,0,1,82.791,67l2.408-.131a3.563,3.563,0,0,0,1.544,2.723,5.8,5.8,0,0,0,3.485,1.019,5.556,5.556,0,0,0,3.31-.877,2.945,2.945,0,0,0,1.217-2.553,2.66,2.66,0,0,0-.863-2.066,3.161,3.161,0,0,0-1.127-.63,17.162,17.162,0,0,0-3.193-.941l-2.041-.524a12.485,12.485,0,0,1-1.677-.653,4.267,4.267,0,0,1-1.912-1.571,5.667,5.667,0,0,1-.708-2.645,5.149,5.149,0,0,1,1.7-3.952,6.919,6.919,0,0,1,4.921-1.6" transform="translate(79.189 50.31)" fill="#fff"/><path d="M100.922,52.6a9.306,9.306,0,0,1,5.995,1.964,7.728,7.728,0,0,1,2.935,5.288l-2.489.235a5.818,5.818,0,0,0-2.146-3.927,6.812,6.812,0,0,0-4.373-1.415,6.665,6.665,0,0,0-5.13,2.123,8.179,8.179,0,0,0-1.964,5.783,8.084,8.084,0,0,0,1.99,5.84,7.574,7.574,0,0,0,9.477.745,5.828,5.828,0,0,0,2.172-3.729l2.489.207a7.89,7.89,0,0,1-2.986,5.106,10.288,10.288,0,0,1-12.88-.814,9.934,9.934,0,0,1-2.7-7.356A10,10,0,0,1,93.985,55.3a9.4,9.4,0,0,1,6.938-2.7" transform="translate(87.342 50.31)" fill="#fff"/></g></g><path d="M102.314,52.734V72.317h12.122V70.194h-9.714V63.231h8.562v-2.07h-8.562V54.855h9.714V52.734Z" transform="translate(97.863 50.44)" fill="#fff"/><g transform="translate(0 0)"><g clip-path="url(#a)"><path d="M120.6,54.776h-5.288v15.5h5.236a6.752,6.752,0,0,0,5.1-2.015,7.939,7.939,0,0,0,1.964-5.734,7.912,7.912,0,0,0-1.937-5.707,6.685,6.685,0,0,0-5.079-2.041m-7.671,17.54V52.733h7.646a9.173,9.173,0,0,1,6.779,2.618A9.692,9.692,0,0,1,130,62.523a9.585,9.585,0,0,1-2.671,7.174,9.264,9.264,0,0,1-6.807,2.618Z" transform="translate(108.012 50.439)" fill="#fff"/></g></g><path d="M123.349,52.734V72.317h12.226V70.194h-9.82V52.734Z" transform="translate(117.983 50.44)" fill="#fff"/><path d="M139.282,58.084l3.586,7.853h-7.147Zm-9.215,14.4h2.616l2.017-4.428h9.162l2.017,4.428H148.5l-9.215-19.925Z" transform="translate(124.409 50.272)" fill="#fff"/><g transform="translate(0 0)"><g clip-path="url(#a)"><path d="M152.788,52.6a9.313,9.313,0,0,1,5.995,1.964,7.726,7.726,0,0,1,2.933,5.288l-2.487.235a5.821,5.821,0,0,0-2.148-3.927,6.806,6.806,0,0,0-4.371-1.415,6.669,6.669,0,0,0-5.132,2.123,8.18,8.18,0,0,0-1.964,5.783,8.084,8.084,0,0,0,1.99,5.84,7.574,7.574,0,0,0,9.477.745,5.83,5.83,0,0,0,2.174-3.729l2.487.207a7.888,7.888,0,0,1-2.984,5.106,10.291,10.291,0,0,1-12.882-.814,9.94,9.94,0,0,1-2.7-7.356,10.005,10.005,0,0,1,2.669-7.356,9.4,9.4,0,0,1,6.94-2.7" transform="translate(136.951 50.31)" fill="#fff"/></g></g><rect width="2.406" height="19.583" transform="translate(301.678 103.174)" fill="#fff"/><path d="M157.551,52.734V72.317h12.122V70.194H159.96V63.231h8.562v-2.07H159.96V54.855h9.714V52.734Z" transform="translate(150.697 50.44)" fill="#fff"/><g transform="translate(0 0)"><g clip-path="url(#a)"><path d="M173.166,63.308h-5.553v6.887h5.341a4.262,4.262,0,0,0,2.815-.863,3.153,3.153,0,0,0,1.033-2.567A3.242,3.242,0,0,0,175.8,64.2a3.83,3.83,0,0,0-2.63-.892m-.892-8.454h-4.66v6.388h5.316q3.035,0,3.037-3.142a2.981,2.981,0,0,0-1-2.395,4.009,4.009,0,0,0-2.7-.851m-7.041,17.462V52.733h7.331a6.27,6.27,0,0,1,4.253,1.373,4.809,4.809,0,0,1,1.585,3.835q0,3.064-2.227,4.165A4.279,4.279,0,0,1,178.4,63.82a5.39,5.39,0,0,1,.837,3.076A5.017,5.017,0,0,1,177.6,70.9a6.446,6.446,0,0,1-4.359,1.413Z" transform="translate(158.044 50.439)" fill="#fff"/></g></g><rect width="2.405" height="19.583" transform="translate(340.738 103.174)" fill="#fff"/><path d="M177.516,52.734V72.317h12.122V70.194h-9.716V63.231h8.562v-2.07h-8.562V54.855h9.716V52.734Z" transform="translate(169.793 50.44)" fill="#fff"/></g></svg>